<svg id="Capa_1" enable-background="new 0 0 461.233 461.233" height="512" viewBox="0 0 461.233 461.233" width="512" xmlns="http://www.w3.org/2000/svg"><g><path d="m185.856 271.786 156.877-156.877c1.979-1.98 4.671-3.081 7.47-3.054l33.423.332c2.799.026 5.491-1.074 7.47-3.054l64.821-64.821c7.09-7.091 7.09-18.587 0-25.677-7.091-7.09-18.587-7.09-25.677 0l-56.53 56.53c-1.979 1.98-4.671 3.081-7.47 3.054l-30.01-.299c-2.799-.026-5.491 1.074-7.47 3.054l-166.86 166.855z" fill="#d69049"/><path d="m213.468 280.099-16.801 9.692-11.109 6.39-20.379 11.755-3.999 2.301-6.632 3.831-.017.022-1.53.866-8.178-8.403-3.409-3.521-3.667-3.775-18.461-18.978-.293-.292 4.827-7.369 2.671-4.072.754-1.125 11.7-17.848 6.93-10.575 10.495-15.991z" fill="#f6b863"/><path d="m0 447.911c6.994-5.092 13.142-11.253 18.219-18.258 11.259-14.716 16.071-33.367 13.336-51.692-1.952-12.746-3.741-23.062-5.141-30.785-4.117-21.542 1.53-43.801 15.418-60.776 10.279-12.352 24.572-20.698 40.381-23.579 14.189-3.007 28.949-1.776 42.445 3.538 3.038 1.187 5.992 2.578 8.842 4.162 2.397 1.313 4.727 2.745 6.98 4.292 3.118 2.135 6.095 4.47 8.91 6.992l.039.039.681.793.039.039c.737.883 1.879 2.284 3.262 4.146.624.883 1.311 1.822 2.008 2.857 2.192 3.281 4.2 6.682 6.013 10.187 11.328 21.83 21.239 60.484-16.841 100.589-39.288 41.375-105.78 47.697-144.591 47.456z" fill="#eaa14e"/><path d="m119.747 384.794c-26.971 28.372-66.688 40.274-101.528 44.858 11.259-14.716 16.071-33.367 13.336-51.692-1.952-12.746-3.741-23.062-5.141-30.785-4.117-21.542 1.53-43.801 15.418-60.776 10.279-12.352 24.572-20.698 40.381-23.579 14.189-3.007 28.949-1.776 42.445 3.538l.562.647.039.039c.737.883 1.879 2.284 3.262 4.146.624.883 1.311 1.822 2.008 2.857 2.201 3.275 4.218 6.67 6.041 10.17 11.363 21.818 21.257 60.472-16.823 100.577z" fill="#f2b15a"/><g fill="#d69049"><path d="m135.632 362.121c-1.026.956-2.625.923-3.611-.073l-.073-.073c-.963-1.063-.898-2.701.146-3.684 26.065-23.967 24.114-60.63 23.321-68.623 2.194 3.279 4.203 6.678 6.019 10.181.98 23.542-8.459 46.321-25.802 62.272z"/><path d="m136.571 309.562c-.85 1.149-2.47 1.391-3.619.541-.003-.002-.006-.004-.009-.007-.113-.07-.218-.151-.315-.242-.91-.921-1.012-2.368-.242-3.409l17.319-23.326c.119-.175.27-.325.444-.444.737.883 1.879 2.284 3.262 4.146z"/><path d="m93.828 298.284c-.935 1.089-2.576 1.213-3.665.278-.001-.001-.002-.002-.003-.002l-.129-.129c-.966-.969-1.023-2.519-.129-3.555 11.063-13.189 26.579-21.861 43.609-24.372 2.397 1.313 4.727 2.745 6.98 4.292-17.897 1.88-34.491 10.233-46.663 23.488z"/></g><path d="m196.667 289.791-11.109 6.39-46.613-46.608 6.93-10.575z" fill="#575b6d"/></g></svg>