<svg id="Layer_1" height="512" viewBox="0 0 512 512" width="512" xmlns="http://www.w3.org/2000/svg" data-name="Layer 1"><path d="m72 272s-64 16-64 56v46.742a33.258 33.258 0 0 0 33.258 33.258h1.785a33.433 33.433 0 0 0 32.307-25.361c4.307-16.857 11.059-35.625 33.559-31.125z" fill="#bab9b9"/><path d="m256 504c40 0 44.509-14.606 59.271-16.933 14.682-2.314 34.752 12.019 48.632 5.781 13.657-6.138 17.062-31.179 29.431-39.617 12.747-8.7 36.918-2.451 47.749-11.987 12.332-10.856-2.161-31.555 6.917-41.244 18.343-19.578 40 16 56.051-24h-.051a383.688 383.688 0 0 1 -96-112 381.807 381.807 0 0 1 -40-104c.01-15.6-2.305-42.208-16.85-69.932-26.327-50.18-80.765-82.068-143.65-82.068-88.642 0-160.5 55.358-160.5 144 0 0 1 216 209 352z" fill="#e0e0e0"/><circle cx="120" cy="120" fill="#5b223c" r="24"/><circle cx="216" cy="120" fill="#5b223c" r="24"/><path d="m216 208a48 48 0 0 1 -96 0z" fill="#ea2f4e"/><path d="m136 208h16v16h-16z" fill="#fff"/><path d="m184 208h16v16h-16z" fill="#fff"/><path d="m291.043 368h-1.785a41.3 41.3 0 0 1 -41.258-41.258v-46.742c0-45.721 67.2-63.046 70.06-63.761l3.881 15.521-1.941-7.76 1.947 7.76c-.579.145-57.947 14.981-57.947 48.24v46.742a25.287 25.287 0 0 0 25.258 25.258h1.785a25.467 25.467 0 0 0 24.557-19.342c7.059-27.629 23.813-40.936 45.971-36.5l-3.139 15.689c-4.938-.989-19.979-4-27.33 24.774a41.459 41.459 0 0 1 -40.059 31.379z" fill="#969595"/><g fill="#fff"><path d="m47 152s1 216 209 352c40 0 44.509-14.606 59.271-16.933 10.472-1.651 23.684 5.164 35.437 6.946-318.67-291.07-143.208-486.013-143.208-486.013-88.642 0-160.5 55.358-160.5 144z" opacity=".2"/><path d="m329.53 256s-51.2 17.82-55.21 91.09a175.735 175.735 0 0 0 -.03 18.1 41.329 41.329 0 0 1 -26.29-38.45v-46.74c0-38.05 46.55-56.44 63.81-61.94l6.25-1.821z" opacity=".2"/></g></svg>