<svg id="Capa_1" enable-background="new 0 0 512 512" height="512" viewBox="0 0 512 512" width="512" xmlns="http://www.w3.org/2000/svg"><g><path d="m467 271h-76l-4.731-12.231 79.731-89.605v-108.164h-15c-24.853 0-45 20.147-45 45v45l-60 60h-13.154l19.6-108.398-103.071-102.602-9.963 10.631c-13.207 14.094-14.802 49.462 8.013 72.275l38.575 38.094-30 90h-26.763l-18.237-32.221-42.568-75.211-115.919-37.65-3.86 12.466c-6.118 19.759 9.25 51.57 39.271 61.586l33.076 11.03 30 60-30 60h-61v-45c0-24.853-20.147-45-45-45h-15v120l54.22 53.22 27.816 4.041-6.423 17.351 34.21 34.21 26.177 1.906-15 26.05v59.222h90 90v-42.468l-15.273-57.532 31.289 22.476 54.349-81.524-1.365-22.225 54.558 15.273h87.442v-15c0-24.853-20.147-45-45-45z" fill="#b7e65c"/><path d="m467 271h-76l-4.731-12.231 79.731-89.605v-108.164h-15c-24.853 0-45 20.147-45 45v45l-60 60h-13.154l19.6-108.398-103.071-102.602-9.963 10.631c-13.207 14.094-14.802 49.462 8.013 72.275l38.575 38.094-30 90h-26.763l-18.237-32.221v318.221h90v-42.468l-15.273-57.532 31.289 22.476 54.349-81.524-1.365-22.225 54.558 15.273h87.442v-15c0-24.853-20.147-45-45-45z" fill="#97d957"/><path d="m346 256h-30v54.272l55.366 27.681 4.634-6.953h48.558l-78.558-39.272z" fill="#71bf4d"/><path d="m196 346h-30v35.728l-56.179 28.093 11.179 11.179v16.778l75-37.506z" fill="#97d957"/><path d="m88.261 309.965-34.041 44.255 21.392 21.392 36.423-47.351z" fill="#97d957"/><g><g><path d="m31 482h360v30h-360z" fill="#475f8a"/></g></g><path d="m211 482h180v30h-180z" fill="#2e4772"/><path d="m256 297.453v-41.453h-30v30h-15-15v30h15 20.728l69.272 138.532v-33.532h15l1.016-1.523z" fill="#97d957"/><path d="m301 454.532v-33.532h15l1.016-1.523-61.016-122.024v-41.453h-30v30h-15v30h20.728z" fill="#71bf4d"/></g></svg>